<?xml version="1.0" standalone="no"?>
<!DOCTYPE svg PUBLIC "-//W3C//DTD SVG 20010904//EN"
 "http://www.w3.org/TR/2001/REC-SVG-20010904/DTD/svg10.dtd">
<svg version="1.0" xmlns="http://www.w3.org/2000/svg"
 width="1554.000000pt" height="626.000000pt" viewBox="0 0 1554.000000 626.000000"
 preserveAspectRatio="xMidYMid meet">

<g transform="translate(0.000000,626.000000) scale(0.100000,-0.100000)"
fill="#000000" stroke="none">
<path d="M8718 5352 c-145 -312 -534 -1146 -863 -1854 -330 -708 -601 -1285
-603 -1284 -1 2 2 32 8 67 6 35 14 151 17 257 l6 192 -649 -2 -649 -3 -3 -222
-2 -223 395 0 395 0 -6 -32 c-35 -199 -117 -351 -265 -494 -197 -189 -408
-275 -675 -275 -246 0 -452 73 -669 237 -89 67 -219 201 -275 283 -63 94 -128
238 -156 348 -49 189 -44 476 11 668 66 228 226 456 425 606 272 205 646 276
989 188 103 -27 260 -105 357 -177 74 -56 220 -198 274 -269 l25 -31 169 162
170 163 -95 98 c-162 168 -338 304 -498 385 -100 50 -287 108 -422 131 -108
18 -150 21 -329 16 -230 -6 -325 -22 -501 -83 -247 -86 -440 -213 -641 -423
-193 -201 -327 -434 -393 -683 l-18 -68 -488 0 -489 0 0 380 0 380 630 0 630
0 0 220 0 220 -850 0 -851 0 -17 31 c-146 269 -364 439 -675 524 -215 58 -319
67 -844 72 l-483 5 0 -1886 0 -1886 285 0 285 0 0 770 0 771 54 -3 55 -3 533
-765 534 -765 987 -3 987 -2 0 225 0 225 -630 0 -630 0 0 525 0 525 469 0 469
0 7 -72 c37 -408 188 -731 475 -1018 271 -271 584 -422 955 -460 461 -48 880
93 1197 400 54 52 98 94 98 94 0 -1 -45 -97 -100 -214 -55 -118 -100 -217
-100 -222 0 -4 165 -8 368 -8 l367 0 254 555 254 555 974 -2 974 -3 237 -550
238 -550 752 -3 752 -2 0 175 c0 96 2 175 5 175 3 0 33 -23 67 -51 208 -168
478 -288 753 -335 146 -25 413 -23 567 5 336 60 625 211 874 456 327 324 478
684 476 1145 -1 409 -116 729 -373 1036 -246 295 -567 490 -929 565 -138 29
-418 36 -572 15 -360 -51 -664 -205 -932 -472 -317 -318 -476 -694 -476 -1130
0 -406 122 -759 359 -1041 l61 -73 -420 0 -420 0 -10 26 c-6 16 -10 541 -10
1430 l0 1404 -250 0 -250 0 -2 -846 -3 -846 -715 1592 c-393 875 -718 1594
-721 1596 -4 2 -126 -252 -271 -564z m598 -1745 l333 -762 -686 -3 c-377 -1
-688 -1 -690 1 -2 2 146 330 328 728 182 398 340 744 350 768 11 24 22 41 26
37 4 -3 156 -349 339 -769z m-7396 684 c310 -78 464 -279 446 -586 -9 -171
-56 -284 -160 -383 -139 -134 -345 -192 -678 -192 l-148 0 0 596 0 596 228 -5
c187 -4 242 -9 312 -26z m11331 -467 c230 -43 414 -145 589 -324 204 -208 303
-425 331 -723 34 -357 -80 -689 -323 -942 -228 -238 -504 -355 -838 -355 -312
0 -568 104 -799 325 -258 246 -371 535 -357 910 12 329 106 552 331 780 215
219 412 313 735 349 60 7 251 -5 331 -20z m-10453 -1726 l-3 -373 -352 485
-352 484 87 26 c48 15 114 39 146 54 154 69 332 224 426 370 l45 69 3 -371 c1
-205 1 -540 0 -744z"/>
<path d="M10336 5081 c-97 -208 -176 -382 -176 -385 0 -3 25 -6 56 -6 l56 0
41 90 41 90 155 -2 155 -3 38 -85 37 -85 60 -3 61 -3 -19 43 c-27 62 -323 722
-326 726 -1 1 -81 -168 -179 -377z m249 -31 l34 -80 -109 0 c-127 0 -122 -18
-45 145 l47 100 20 -43 c10 -23 34 -78 53 -122z"/>
<path d="M11821 5143 c-35 -175 -69 -348 -76 -385 l-13 -68 57 0 57 0 34 198
c18 108 36 205 40 216 5 13 35 -46 105 -205 54 -123 101 -227 104 -231 3 -4
53 96 110 223 57 126 106 228 108 225 2 -2 17 -89 34 -192 16 -104 32 -199 35
-211 4 -21 10 -23 60 -23 49 0 56 2 52 18 -3 9 -33 182 -69 384 -35 202 -67
364 -71 360 -4 -4 -61 -126 -128 -272 -66 -145 -122 -266 -124 -267 -2 -2 -56
117 -121 264 -64 148 -121 272 -125 276 -4 4 -35 -135 -69 -310z"/>
<path d="M13240 5077 l0 -387 55 0 55 0 0 253 0 252 182 -190 c100 -104 220
-228 265 -275 l83 -85 0 388 0 387 -55 0 -55 0 0 -252 0 -253 -118 120 c-65
66 -184 190 -265 275 l-147 154 0 -387z"/>
<path d="M14050 5077 l0 -387 55 0 55 0 0 253 0 252 182 -190 c100 -104 220
-228 265 -275 l83 -85 0 388 0 387 -55 0 -55 0 0 -252 0 -253 -118 120 c-65
66 -184 190 -265 275 l-147 154 0 -387z"/>
<path d="M11185 5417 c-72 -24 -120 -54 -168 -106 -92 -99 -125 -224 -93 -351
29 -111 93 -192 199 -248 47 -24 62 -27 157 -27 95 0 110 3 155 27 65 34 129
101 155 161 13 28 24 80 27 123 l6 74 -152 0 -151 0 0 -50 0 -50 90 0 c72 0
90 -3 90 -14 0 -29 -22 -72 -53 -105 -91 -96 -236 -93 -340 7 -82 79 -107 189
-68 293 39 102 149 179 256 179 54 0 123 -30 173 -75 l49 -44 37 38 37 38 -46
42 c-70 64 -143 94 -240 98 -48 2 -96 -2 -120 -10z"/>
<path d="M9750 5055 l0 -365 55 0 55 0 0 175 0 175 120 0 120 0 0 50 0 50
-120 0 -120 0 0 90 0 90 125 0 125 0 0 50 0 50 -180 0 -180 0 0 -365z"/>
<path d="M12690 5055 l0 -365 200 0 200 0 0 50 0 50 -145 0 -145 0 0 125 0
125 140 0 140 0 0 50 0 50 -140 0 -140 0 0 90 0 90 145 0 145 0 0 50 0 50
-200 0 -200 0 0 -365z"/>
<path d="M14380 1491 c-76 -24 -118 -61 -149 -131 -28 -62 -27 -115 7 -181 79
-156 307 -172 407 -29 75 107 35 264 -82 321 -50 24 -140 34 -183 20z m159
-51 c61 -31 111 -105 111 -165 0 -30 -24 -88 -47 -116 -56 -66 -166 -88 -242
-50 -109 56 -142 175 -75 272 51 74 169 102 253 59z"/>
<path d="M14395 1400 c-31 -12 -64 -53 -75 -90 -23 -79 42 -170 121 -170 47 0
91 21 113 52 20 28 20 34 0 42 -10 4 -26 -5 -44 -24 -38 -40 -81 -41 -121 -1
-21 22 -29 39 -29 66 0 27 8 44 29 66 34 34 64 37 108 9 33 -20 67 -17 60 4
-2 6 -18 21 -37 34 -34 23 -87 28 -125 12z"/>
<path d="M4111 645 c-32 -47 -20 -56 26 -19 45 37 52 54 21 54 -15 0 -31 -12
-47 -35z"/>
<path d="M4890 639 c0 -25 33 -22 38 4 2 12 -3 17 -17 17 -15 0 -21 -6 -21
-21z"/>
<path d="M4970 639 c0 -25 33 -22 38 4 2 12 -3 17 -17 17 -15 0 -21 -6 -21
-21z"/>
<path d="M4870 568 c-35 -18 -51 -35 -73 -78 -24 -47 -28 -64 -25 -117 3 -49
9 -68 28 -88 69 -74 193 -40 238 65 22 52 21 150 -1 184 -19 28 -71 56 -105
56 -10 0 -38 -10 -62 -22z m117 -44 c23 -24 25 -31 21 -89 -6 -71 -28 -115
-68 -139 -37 -21 -62 -20 -92 4 -32 25 -41 67 -27 130 22 105 107 153 166 94z"/>
<path d="M7936 580 c-70 -22 -125 -109 -126 -198 0 -94 40 -136 129 -135 82 1
87 6 105 85 9 39 16 77 16 84 0 21 -96 19 -104 -2 -9 -23 -8 -24 25 -24 31 0
31 0 24 -42 -7 -47 -27 -68 -61 -68 -66 0 -101 49 -90 127 14 102 89 161 173
135 36 -11 52 -5 53 19 0 18 -103 32 -144 19z"/>
<path d="M10747 576 c-21 -8 -48 -22 -59 -33 -73 -64 -59 -236 23 -278 35 -19
103 -24 162 -12 l37 8 0 89 0 90 -65 0 -65 0 0 -30 c0 -27 3 -30 30 -30 28 0
30 -3 30 -35 0 -34 -1 -35 -40 -35 -58 0 -80 28 -80 102 0 50 4 63 26 85 23
23 31 25 86 21 56 -4 60 -3 69 20 12 30 10 31 -38 43 -51 12 -71 11 -116 -5z"/>
<path d="M11686 580 c-125 -39 -139 -262 -21 -319 42 -21 125 -18 164 5 92 54
93 251 2 299 -39 20 -108 27 -145 15z m114 -80 c34 -34 25 -156 -14 -182 -6
-4 -27 -8 -47 -8 -54 0 -74 28 -74 105 0 48 5 68 19 84 26 28 88 29 116 1z"/>
<path d="M12333 579 c-40 -12 -63 -43 -63 -87 0 -48 15 -69 68 -96 57 -29 77
-50 68 -72 -5 -13 -16 -15 -59 -12 -28 3 -60 9 -69 13 -15 6 -18 2 -18 -28 0
-34 2 -36 48 -46 159 -34 241 114 102 184 -55 28 -74 49 -66 71 5 14 16 16 60
11 50 -5 54 -4 65 19 10 22 8 26 -13 34 -41 15 -90 19 -123 9z"/>
<path d="M3695 568 c-5 -16 -65 -301 -65 -311 0 -4 9 -7 19 -7 16 0 23 13 36
75 l17 75 70 0 71 0 -7 -37 c-3 -21 -9 -55 -12 -75 -6 -33 -4 -38 12 -38 17 0
24 21 52 153 38 178 38 177 14 177 -15 0 -22 -14 -33 -67 l-14 -68 -72 -3
c-40 -2 -73 1 -73 5 0 4 4 24 9 43 23 88 23 90 1 90 -11 0 -23 -6 -25 -12z"/>
<path d="M3997 420 c-48 -87 -87 -162 -87 -165 0 -3 9 -5 20 -5 14 0 29 16 48
50 l27 50 57 0 57 0 3 -47 c3 -41 6 -48 26 -51 21 -3 23 -1 18 30 -8 46 -36
269 -36 285 0 7 -10 13 -23 13 -19 0 -37 -26 -110 -160z m106 33 l7 -63 -40 0
c-22 0 -40 3 -40 6 0 6 64 124 66 121 1 -1 4 -30 7 -64z"/>
<path d="M4285 568 c-5 -18 -65 -301 -65 -311 0 -4 9 -7 19 -7 15 0 22 12 31
53 20 89 20 88 48 85 22 -3 29 -12 47 -68 17 -51 26 -66 43 -68 28 -4 27 0 -3
78 -29 75 -29 70 -11 70 7 0 25 12 40 26 37 38 37 104 0 133 -31 25 -142 31
-149 9z m123 -40 c36 -36 -3 -96 -66 -105 -47 -6 -47 -7 -31 67 10 49 11 50
48 50 20 0 42 -5 49 -12z"/>
<path d="M4531 428 c10 -84 18 -159 18 -165 1 -7 11 -13 24 -13 17 0 29 11 45
43 11 23 51 97 87 165 64 118 65 122 41 122 -22 0 -33 -17 -94 -136 l-69 -136
-13 136 c-12 129 -14 136 -35 136 l-21 0 17 -152z"/>
<path d="M5165 568 c-6 -20 -65 -298 -65 -308 0 -6 9 -10 19 -10 14 0 21 9 26
33 20 99 25 108 52 105 23 -3 29 -12 48 -68 17 -52 26 -66 44 -68 25 -4 25 -1
-10 92 -10 28 -18 50 -16 51 56 23 77 53 77 110 0 50 -37 75 -112 75 -38 0
-60 -4 -63 -12z m123 -40 c36 -36 -3 -97 -67 -105 l-44 -6 7 48 c4 26 10 54
13 61 6 17 74 19 91 2z"/>
<path d="M5412 473 c-28 -136 -28 -165 1 -199 19 -22 32 -26 74 -27 58 -1 95
18 118 62 11 22 65 243 65 267 0 2 -9 4 -20 4 -12 0 -22 -8 -25 -22 -3 -13
-14 -63 -25 -113 -11 -49 -25 -102 -31 -117 -14 -33 -61 -55 -96 -42 -48 17
-50 33 -22 169 l26 125 -21 0 c-19 0 -24 -11 -44 -107z"/>
<path d="M5750 524 c-7 -33 -22 -107 -35 -166 l-23 -108 22 0 c20 0 24 8 35
70 12 66 14 70 40 70 24 0 29 -7 51 -70 20 -59 28 -70 47 -70 l23 0 -27 72
c-20 53 -23 73 -14 76 7 2 24 14 39 27 22 19 27 32 27 69 0 64 -19 79 -104 84
l-69 4 -12 -58z m138 -13 c9 -58 -24 -91 -90 -91 -21 0 -29 4 -25 14 3 7 9 34
12 60 l7 47 47 -3 c40 -3 46 -6 49 -27z"/>
<path d="M6165 568 c-6 -17 -65 -298 -65 -310 0 -4 9 -8 19 -8 14 0 21 9 26
33 4 17 11 49 16 70 l10 37 59 0 c53 0 60 2 60 20 0 18 -7 20 -56 20 l-56 0 6
38 c13 72 12 71 79 74 49 2 62 6 65 21 3 15 -6 17 -78 17 -55 0 -82 -4 -85
-12z"/>
<path d="M6354 563 c3 -10 15 -57 27 -105 18 -74 20 -95 10 -132 -15 -62 -14
-76 7 -76 15 0 22 13 31 58 8 38 30 84 65 137 100 152 92 135 65 135 -19 0
-35 -17 -76 -81 l-52 -80 -10 38 c-5 21 -15 57 -21 81 -8 32 -16 42 -31 42
-15 0 -19 -5 -15 -17z"/>
<path d="M6635 568 c-4 -14 -65 -306 -65 -314 0 -2 9 -4 19 -4 20 0 25 9 36
70 12 67 15 71 43 68 22 -3 29 -12 47 -68 17 -52 26 -66 44 -68 25 -4 25 -6
-4 81 -19 57 -19 59 -1 69 41 23 56 48 56 92 0 62 -31 86 -112 86 -38 0 -60
-4 -63 -12z m123 -40 c18 -18 14 -63 -7 -82 -23 -21 -101 -34 -101 -18 0 6 5
34 11 62 10 49 11 50 48 50 20 0 42 -5 49 -12z"/>
<path d="M6910 577 c0 -8 -61 -293 -66 -310 -5 -15 -1 -18 17 -15 21 3 26 16
56 153 39 179 38 175 13 175 -11 0 -20 -2 -20 -3z"/>
<path d="M7045 568 c-4 -14 -65 -306 -65 -314 0 -2 9 -4 19 -4 20 0 25 9 36
70 12 67 15 71 43 68 22 -3 29 -12 47 -68 17 -51 26 -66 43 -68 27 -4 27 -2 0
76 -22 61 -22 64 -4 74 41 23 56 48 56 92 0 62 -31 86 -112 86 -38 0 -60 -4
-63 -12z m123 -40 c18 -18 14 -63 -7 -82 -23 -21 -101 -34 -101 -18 0 6 5 34
11 62 10 49 11 50 48 50 20 0 42 -5 49 -12z"/>
<path d="M7440 523 c-7 -32 -22 -106 -35 -165 l-23 -108 24 0 c17 0 24 6 24
19 0 39 11 51 46 51 96 0 160 71 133 149 -13 38 -35 51 -87 51 -37 0 -38 1
-34 30 4 25 1 30 -16 30 -17 0 -23 -10 -32 -57z m104 -43 c34 -13 37 -69 4
-100 -21 -19 -98 -30 -98 -12 1 10 20 94 25 110 5 14 34 16 69 2z"/>
<path d="M7692 428 c-38 -178 -37 -178 -14 -178 16 0 24 25 53 165 35 163 35
165 14 165 -18 0 -24 -15 -53 -152z"/>
<path d="M8520 574 c0 -5 49 -204 71 -287 10 -37 11 -38 52 -35 l41 3 26 102
c14 57 28 103 31 103 3 0 12 -26 19 -57 7 -32 19 -80 27 -106 l14 -48 41 3 42
3 38 150 c20 83 38 156 38 163 0 7 -13 12 -34 12 l-34 0 -22 -97 c-12 -54 -24
-109 -27 -122 -4 -16 -15 14 -36 98 l-30 122 -36 -3 -36 -3 -30 -118 -30 -118
-28 121 -28 120 -35 0 c-19 0 -34 -3 -34 -6z"/>
<path d="M9014 418 l43 -163 41 -3 c46 -3 41 -14 80 153 l19 80 29 -118 28
-117 42 0 41 0 37 143 c20 78 39 152 42 165 6 20 3 22 -29 22 -41 0 -39 4 -75
-160 l-18 -85 -30 120 -30 120 -35 3 -36 3 -26 -103 c-15 -57 -27 -110 -27
-118 0 -39 -19 16 -40 113 l-23 107 -38 0 -37 0 42 -162z"/>
<path d="M9434 563 c3 -10 22 -84 42 -165 l36 -148 42 0 41 0 30 112 29 113
18 -75 c41 -164 34 -150 81 -150 l42 0 41 165 41 165 -36 0 -36 0 -24 -108
c-13 -59 -27 -111 -31 -115 -4 -5 -10 7 -13 26 -3 19 -15 71 -27 116 -22 81
-22 81 -56 81 -37 0 -38 -2 -80 -175 l-18 -69 -17 79 c-35 164 -35 165 -75
165 -29 0 -34 -3 -30 -17z"/>
<path d="M10070 415 l0 -165 35 0 35 0 0 60 c0 53 2 60 20 60 14 0 32 -19 57
-60 35 -56 40 -60 75 -60 21 0 38 2 38 5 0 3 -20 35 -44 71 l-43 65 28 29 c20
19 29 39 29 60 0 72 -43 100 -155 100 l-75 0 0 -165z m144 89 c19 -18 19 -20
6 -45 -8 -13 -21 -19 -45 -19 -34 0 -35 1 -35 40 0 38 2 40 29 40 16 0 37 -7
45 -16z"/>
<path d="M10380 415 l0 -165 100 0 100 0 0 30 0 30 -60 0 -60 0 0 40 0 40 55
0 c54 0 55 0 55 30 0 30 -1 30 -55 30 l-55 0 0 35 0 35 60 0 60 0 0 30 0 30
-100 0 -100 0 0 -165z"/>
<path d="M11020 428 c-29 -84 -55 -159 -58 -165 -3 -9 8 -13 35 -13 38 0 40 2
52 40 l12 40 58 0 58 0 12 -40 c11 -38 14 -40 51 -40 l39 0 -46 128 c-25 70
-51 143 -58 162 -11 32 -15 35 -57 38 l-45 3 -53 -153z m123 15 l15 -53 -40 0
c-33 0 -39 3 -34 18 2 9 10 36 17 60 14 50 21 46 42 -25z"/>
<path d="M11330 415 l0 -165 100 0 100 0 0 30 0 30 -65 0 -65 0 0 135 0 135
-35 0 -35 0 0 -165z"/>
<path d="M12120 415 l0 -165 35 0 35 0 0 165 0 165 -35 0 -35 0 0 -165z"/>
<path d="M8240 375 l0 -35 60 0 60 0 0 35 0 35 -60 0 -60 0 0 -35z"/>
<path d="M9916 302 c-9 -26 2 -50 25 -57 27 -9 51 13 47 44 -2 21 -9 27 -35
29 -24 2 -33 -1 -37 -16z"/>
<path d="M11964 294 c-7 -27 14 -54 42 -54 19 0 36 27 32 52 -2 18 -10 24 -35
26 -28 3 -33 0 -39 -24z"/>
</g>
</svg>
